<svg width="35" height="35" viewBox="0 0 35 35" fill="none" xmlns="http://www.w3.org/2000/svg">
<g clip-path="url(#clip0_2_1820)">
<path d="M30.92 12.1572C27.1965 14.1357 23.4906 16.1789 19.87 18.3514C18.5826 17.0746 17.5155 16.0584 17.2405 14.8501C17.2556 14.7779 17.1928 14.0322 17.1966 13.9267C17.211 13.5476 17.2299 13.1685 17.2701 12.7906C17.3862 11.7266 17.5783 10.6696 17.7515 9.61253C18.0327 7.88949 17.2996 6.17524 15.4861 5.6894C14.8415 5.51678 14.1077 5.58206 13.448 5.83628C13.2069 5.70446 12.9301 5.61282 12.6144 5.57766C9.94854 5.28202 7.33166 4.69512 4.82148 3.74603C2.31507 2.79883 1.24295 6.80796 3.71924 7.74449C6.16727 8.67035 8.7013 9.21017 11.2805 9.55917C11.2717 9.60813 11.2636 9.6571 11.2542 9.70606C8.24182 10.2842 5.28786 11.1008 2.37972 12.1026C-0.132967 12.9676 0.946679 16.9748 3.48196 16.1011C5.87351 15.2769 8.29455 14.5783 10.7539 14.0341C10.7514 14.9392 10.843 15.8312 11.0859 16.6886C11.6634 18.7211 12.9257 20.3581 14.3437 21.8634C13.4787 22.4509 12.6087 23.0278 11.6948 23.5255C10.0716 24.41 8.26505 25.5869 7.64049 27.4349C6.48112 30.8659 10.0596 32.2255 11.8768 34.3201C13.6313 36.3438 16.552 33.398 14.8088 31.3875C13.937 30.3825 12.7519 29.7643 11.8279 28.8246C11.3835 28.3708 11.4418 28.7806 11.9277 28.3394C12.6332 27.6972 13.4517 27.3206 14.2696 26.8436C16.8376 25.3471 19.2473 23.5626 21.8083 22.0404C25.4923 19.8535 29.2278 17.7494 33.0115 15.737C35.3742 14.4816 33.2802 10.9025 30.92 12.1572Z" fill="white"/>
<path d="M19.6536 6.50675C21.4504 6.50675 22.9069 5.05017 22.9069 3.25338C22.9069 1.45659 21.4504 0 19.6536 0C17.8568 0 16.4002 1.45659 16.4002 3.25338C16.4002 5.05017 17.8568 6.50675 19.6536 6.50675Z" fill="white"/>
</g>
<defs>
<clipPath id="clip0_2_1820">
<rect width="35" height="35" fill="white"/>
</clipPath>
</defs>
</svg>
