<svg width="10" height="22" viewBox="0 0 10 22" fill="none" xmlns="http://www.w3.org/2000/svg">
<path d="M7.35618 4.26851C8.287 4.26851 9.04158 3.51393 9.04158 2.58311C9.04158 1.65229 8.287 0.897705 7.35618 0.897705C6.42536 0.897705 5.67078 1.65229 5.67078 2.58311C5.67078 3.51393 6.42536 4.26851 7.35618 4.26851Z" fill="white"/>
<path d="M2.12693 5.88477C1.75167 6.05151 1.39125 6.22412 1.05086 6.39501C0.0196597 6.91285 0.925883 8.45602 1.95432 7.93991C2.01473 7.90987 2.07618 7.88225 2.1366 7.85291C2.10622 7.20181 2.09379 6.54381 2.12693 5.88477Z" fill="white"/>
<path d="M9.68778 5.8836C9.74232 5.57428 9.62184 5.25736 9.2307 5.08958C7.74449 4.45125 6.0439 4.58899 4.42478 5.04159C4.42512 5.10718 4.42202 5.17312 4.41166 5.23975C4.32742 5.78245 4.30982 6.25023 4.32052 6.80916L7.35645 6.7011C7.35645 6.7011 7.78177 6.81295 7.46486 6.96416C7.01848 6.98384 4.07265 7.12573 4.07265 7.12573C4.0364 6.37659 4.03398 5.62606 4.1479 4.89107C4.32259 3.76252 2.59887 3.27782 2.42246 4.41534C2.19392 5.88809 2.30439 7.3484 2.3907 8.82805C2.42798 9.47673 3.13086 9.98008 3.73674 9.60067C4.17345 9.3269 4.59429 9.01965 4.99544 8.68858L4.99406 9.26683L4.98163 15.5034V20.4505C4.98163 20.9832 5.37105 21.4154 5.91892 21.4154C6.46611 21.4154 6.91076 20.9832 6.91076 20.4505V13.3795H7.78626C7.78626 15.0363 7.78626 18.8176 7.78626 20.4747C7.78626 21.6284 9.57592 21.6284 9.57592 20.4747C9.57592 18.8176 9.57592 17.1608 9.57592 15.5048C9.94083 8.03333 9.94221 8.05577 9.68778 5.8836Z" fill="white"/>
</svg>
